#!OML:ASF I:\Actors\actors\Patient Classification 2\Patient 1\Session 1\actor1.ASF
:FULLY-SPECIFIED
:DEGREES
158
root -0.583287 18.2097 5.52883 4.35086 -5.52153 -2.61351
lowerback -0.693314 1.98487 0.779142
upperback -3.02113 2.65994 0.189291
thorax -2.68435 1.31202 -0.285211
lowerneck -12.991 -3.17055 -2.02531
upperneck 24.3821 -5.5902 6.02499
head 10.1414 -2.08939 1.75888
rclavicle 3.66012e-014 1.98785e-015
rhumerus -50.0444 34.0037 -94.3225
rradius 110.476
rwrist -36.7479
rhand -4.1347 -45.5787
rfingers 7.12502
rthumb 21.6246 -74.3912
lclavicle 3.66012e-014 1.98785e-015
lhumerus -8.74349 -4.67773 77.3194
lradius 115.451
lwrist 71.7376
lhand -40.5991 -30.2397
lfingers 7.12502
lthumb -13.5452 -0.700283
rfemur 6.48839 5.09619 16.105
rtibia -8.8784
rfoot -10.4955 -12.8578
rtoes 1.33662
lfemur 10.2788 -7.68713 -12.2918
ltibia -9.93285
lfoot -9.90739 20.8466
ltoes -8.57941
159
root -0.595082 18.2107 5.53765 4.45029 -5.91072 -2.70248
lowerback -0.566767 2.03075 0.550131
upperback -3.19219 2.72428 0.312789
thorax -2.94822 1.35019 -0.0412584
lowerneck -12.9094 -3.06815 -1.8727
upperneck 24.5069 -5.44473 5.84986
head 10.1537 -2.02762 1.69195
rclavicle -1.27968e-015 1.64991e-014
rhumerus -50.6073 34.4524 -94.4063
rradius 110.964
rwrist -37.6806
rhand -4.74572 -45.7111
rfingers 7.12502
rthumb 21.0377 -74.59
lclavicle -1.27968e-015 1.64991e-014
lhumerus -6.45041 -1.39105 74.4554
lradius 114.706
lwrist 73.0768
lhand -40.4917 -29.9945
lfingers 7.12502
lthumb -13.4417 -0.448219
rfemur 6.38593 5.47168 16.2529
rtibia -8.95609
rfoot -10.4175 -12.9164
rtoes 1.16309
lfemur 10.2391 -7.40848 -12.1556
ltibia -9.76321
lfoot -10.1133 20.8983
ltoes -8.05651
160
root -0.607366 18.211 5.54507 4.5553 -6.31323 -2.80613
lowerback -0.40943 2.06739 0.499725
upperback -3.37146 2.77469 0.291953
thorax -3.22341 1.37508 -0.0461758
lowerneck -12.7966 -2.96436 -1.61254
upperneck 24.5822 -5.36523 5.84618
head 10.1486 -1.9686 1.65871
rclavicle -4.24902e-015 -1.27222e-014
rhumerus -51.064 34.5939 -94.5867
rradius 111.227
rwrist -37.6543
rhand -3.55214 -46.2438
rfingers 7.12502
rthumb 22.184 -74.9908
lclavicle -4.24902e-015 -1.27222e-014
lhumerus -4.13682 2.04181 71.9529
lradius 113.504
lwrist 73.9986
lhand -40.7125 -30.7679
lfingers 7.12502
lthumb -13.6546 -1.23578
rfemur 6.29642 5.86069 16.4229
rtibia -9.08685
rfoot -10.3227 -12.9967
rtoes 1.07294
lfemur 10.1826 -7.11653 -11.9973
ltibia -9.5581
lfoot -10.3716 20.9524
ltoes -7.62779
161
root -0.618322 18.2111 5.55178 4.66317 -6.74309 -2.8933
lowerback -0.269554 2.11129 0.424567
upperback -3.55795 2.83438 0.287132
thorax -3.49873 1.40569 -0.0210225
lowerneck -12.6411 -2.89969 -1.47746
upperneck 24.7301 -5.34312 5.94362
head 10.1709 -1.9354 1.67617
rclavicle 1.49958e-014 5.56597e-015
rhumerus -51.6335 34.7277 -94.8842
rradius 111.384
rwrist -37.1279
rhand -3.42065 -46.1595
rfingers 7.12502
rthumb 22.3102 -74.8915
lclavicle 1.49958e-014 5.56597e-015
lhumerus -2.0461 5.25589 70.1125
lradius 111.921
lwrist 74.4606
lhand -41.6049 -32.1904
lfingers 7.12502
lthumb -14.5145 -2.71813
rfemur 6.20508 6.27666 16.567
rtibia -9.23404
rfoot -10.2193 -13.0893
rtoes 0.962393
lfemur 10.1312 -6.79708 -11.8641
ltibia -9.36811
lfoot -10.6196 20.9894
ltoes -7.34783
162
root -0.642886 18.2057 5.56977 4.47622 -6.66709 -2.93572
lowerback -0.11384 1.96912 0.00116033
upperback -3.62617 2.64329 0.458323
thorax -3.68523 1.32589 0.388368
lowerneck -12.3963 -2.83101 -1.56263
upperneck 24.9413 -5.28404 6.10353
head 10.2044 -1.89901 1.75966
rclavicle -6.92019e-015 -1.59028e-015
rhumerus -52.2735 34.9443 -95.0993
rradius 111.577
rwrist -36.8816
rhand -4.32877 -45.7774
rfingers 7.12502
rthumb 21.4382 -74.6113
lclavicle -6.92019e-015 -1.59028e-015
lhumerus -0.428106 8.02639 68.9296
lradius 110.226
lwrist 74.3587
lhand -43.0694 -33.7671
lfingers 7.12502
lthumb -15.9252 -4.40184
rfemur 6.64088 6.20402 16.7324
rtibia -9.37214
rfoot -10.3165 -13.0487
rtoes 1.07654
lfemur 10.3736 -7.01628 -11.7902
ltibia -9.25222
lfoot -10.7318 21.0876
ltoes -7.93154
163
root -0.653546 18.2033 5.57935 4.34556 -6.73291 -2.9816
lowerback 0.0828546 1.87622 -0.316311
upperback -3.72197 2.52014 0.659222
thorax -3.91827 1.27842 0.766631
lowerneck -12.0895 -2.74989 -1.69457
upperneck 25.1057 -5.17277 6.187
head 10.2046 -1.85412 1.83101
rclavicle -4.91992e-015 7.55382e-015
rhumerus -52.8468 35.1396 -95.176
rradius 111.767
rwrist -36.8909
rhand -4.60064 -45.7705
rfingers 7.12502
rthumb 21.1771 -74.6338
lclavicle -4.91992e-015 7.55382e-015
lhumerus 0.451543 9.79745 68.2404
lradius 109.114
lwrist 75.4943
lhand -44.2783 -35.7086
lfingers 7.12502
lthumb -17.0891 -6.44019
rfemur 6.90677 6.27306 16.8486
rtibia -9.49577
rfoot -10.3202 -13.0723
rtoes 1.15912
lfemur 10.5945 -7.08221 -11.7507
ltibia -9.22247
lfoot -10.8025 21.2065
ltoes -8.18291
164
root -0.655167 18.2011 5.58537 4.22083 -6.8118 -3.0797
lowerback 0.258682 1.81823 -0.440429
upperback -3.75444 2.44631 0.839948
thorax -4.06397 1.24939 1.01777
lowerneck -11.8873 -2.69625 -1.77373
upperneck 25.2112 -5.07952 6.16072
head 10.1998 -1.82402 1.85029
rclavicle 1.59525e-014 2.38542e-015
rhumerus -53.237 35.2662 -95.1843
rradius 111.914
rwrist -37.0289
rhand -4.45899 -45.8454
rfingers 7.12502
rthumb 21.3131 -74.6934
lclavicle 1.59525e-014 2.38542e-015
lhumerus 0.717816 10.4944 67.893
lradius 108.798
lwrist 77.7907
lhand -44.5913 -35.6537
lfingers 7.12502
lthumb -17.3903 -6.41162
rfemur 7.10585 6.36143 16.9922
rtibia -9.58128
rfoot -10.2633 -13.1254
rtoes 1.06986
lfemur 10.8394 -7.12832 -11.6795
ltibia -9.28766
lfoot -10.8676 21.316
ltoes -8.0983
165
root -0.65375 18.1984 5.59318 4.10943 -6.79683 -3.18383
lowerback 0.309292 1.78115 -0.444496
upperback -3.67995 2.39982 0.944712
thorax -4.01898 1.22794 1.12939
lowerneck -12.1002 -2.75563 -1.70683
upperneck 25.4759 -5.15719 6.00364
head 10.3352 -1.86175 1.77363
rclavicle -6.42323e-015 -1.63003e-014
rhumerus -53.397 35.275 -95.1754
rradius 112.087
rwrist -37.4158
rhand -4.53643 -45.9172
rfingers 7.12502
rthumb 21.2388 -74.7736
lclavicle -6.42323e-015 -1.63003e-014
lhumerus 0.777375 10.3913 67.7962
lradius 108.877
lwrist 79.0877
lhand -44.4858 -34.3986
lfingers 7.12502
lthumb -17.2888 -5.14757
rfemur 7.26709 6.35851 17.1248
rtibia -9.58829
rfoot -10.2453 -13.1777
rtoes 0.857826
lfemur 11.0856 -7.25784 -11.6316
ltibia -9.45449
lfoot -10.7983 21.4621
ltoes -8.56306
166
root -0.651172 18.1964 5.60031 4.03759 -6.6877 -3.27614
lowerback 0.250594 1.75387 -0.379021
upperback -3.53472 2.36492 0.980456
thorax -3.83275 1.20812 1.13555
lowerneck -12.5845 -2.90134 -1.54284
upperneck 25.8065 -5.36813 5.78066
head 10.5505 -1.95191 1.63623
rclavicle 3.85145e-015 -1.05356e-014
rhumerus -53.4251 35.1709 -95.1816
rradius 112.274
rwrist -37.8751
rhand -4.84468 -45.9361
rfingers 7.12502
rthumb 20.9426 -74.8255
lclavicle 3.85145e-015 -1.05356e-014
lhumerus 0.818419 9.64261 67.8716
lradius 109.15
lwrist 79.5836
lhand -44.0768 -33.9999
lfingers 7.12502
lthumb -16.8951 -4.71485
rfemur 7.36556 6.26066 17.2312
rtibia -9.55193
rfoot -10.2623 -13.2127
rtoes 0.646292
lfemur 11.2612 -7.47384 -11.59
ltibia -9.65445
lfoot -10.6727 21.6319
ltoes -9.04079
167
root -0.648627 18.1935 5.60586 3.9908 -6.49877 -3.326
lowerback -0.0530355 1.6871 -0.346193
upperback -3.25815 2.27434 1.01355
thorax -3.37216 1.16056 1.16906
lowerneck -12.8403 -2.96264 -1.4722
upperneck 25.7177 -5.45615 5.74062
head 10.5691 -1.98664 1.59425
rclavicle -3.71603e-014 -1.59028e-015
rhumerus -53.0659 35.0389 -94.9133
rradius 112.244
rwrist -37.7804
rhand -4.82455 -45.7756
rfingers 7.12502
rthumb 20.962 -74.6629
lclavicle -3.71603e-014 -1.59028e-015
lhumerus 1.02778 8.86271 68.2331
lradius 109.402
lwrist 79.5707
lhand -43.8905 -34.0511
lfingers 7.12502
lthumb -16.7158 -4.7508
rfemur 7.43123 6.08147 17.2772
rtibia -9.49155
rfoot -10.3106 -13.1744
rtoes 0.580688
lfemur 11.3631 -7.76942 -11.5679
ltibia -9.83192
lfoot -10.5927 21.7731
ltoes -9.03965
168
root -0.646518 18.1917 5.60969 3.98636 -6.25685 -3.29883
lowerback -0.547126 1.58282 -0.373066
upperback -2.91076 2.13064 1.01488
thorax -2.73207 1.08669 1.21032
lowerneck -13.0128 -2.99395 -1.45895
upperneck 25.4499 -5.50796 5.82281
head 10.5093 -2.00169 1.61
rclavicle -9.29318e-015 -7.95139e-016
rhumerus -52.3823 34.9291 -94.4631
rradius 112.007
rwrist -37.2553
rhand -4.30188 -45.5915
rfingers 7.12502
rthumb 21.464 -74.4224
lclavicle -9.29318e-015 -7.95139e-016
lhumerus 1.41429 8.36859 68.879
lradius 109.585
lwrist 79.5382
lhand -44.0988 -34.2157
lfingers 7.12502
lthumb -16.9163 -4.93237
rfemur 7.45945 5.84453 17.2236
rtibia -9.43052
rfoot -10.396 -13.0777
rtoes 0.576772
lfemur 11.3649 -8.11097 -11.6325
ltibia -9.95428
lfoot -10.4901 21.9034
ltoes -9.23777
